<?xml version="1.0" encoding="utf-8" ?>
<svg 
xmlns="http://www.w3.org/2000/svg"
xmlns:xlink="http://www.w3.org/1999/xlink"
viewBox="0 0 900 900"
preserveAspectRatio="xMidYMid meet"
fill="currentColor"
   >
	<path transform="scale(2 2)" d="M229.473 122.133L229.456 108.634C229.45 90.9793 235.189 76.7474 255.06 75.3505C275.227 74.0515 282.554 91.3241 282.554 108.613L282.539 122.133C329.134 130.209 368.85 178.479 372.548 224.84C373.521 237.044 372.43 250.461 372.854 262.873C373.925 294.279 379.699 327.494 396.602 354.552C400.6 360.951 406.715 366.735 406.792 374.774C406.946 391.014 393.16 392.742 381.189 392.711L304.254 392.688C300.395 417.251 282.991 435.227 257.371 436.248C231.575 436.657 210.918 418.288 207.924 392.688L133.455 392.699C121.809 392.704 108.386 392.44 105.639 377.508C103.833 367.695 108.979 362.645 114.372 355.385C132.207 331.374 138.314 291.467 139.639 262.566C140.149 251.441 139.573 240.299 140.106 229.194C142.481 179.697 179.951 131.193 229.473 122.133ZM253.463 86.3054C236.75 89.7895 240.206 107.006 240.25 119.733C246.442 119.479 252.534 118.807 258.744 119.014C263.104 119.05 267.436 119.411 271.781 119.733L271.799 108.354C271.804 95.2201 268.986 85.3547 253.463 86.3054ZM250.789 129.581C196.374 133.068 153.778 175.174 150.667 229.636C150.181 238.137 150.52 246.733 150.465 255.25C150.292 282.106 145.493 308.561 137.219 334.088L261.875 334.088L374.868 334.088C364.283 303.358 362.114 276.91 362.127 245.1C362.13 238.043 362.254 230.995 361.534 223.965C355.815 168.082 305.718 127.742 250.789 129.581ZM132.676 344.671C130.225 349.852 127.604 354.909 124.339 359.629C120.855 364.665 108.757 376.35 120.654 381.194C124.61 382.805 158.876 382.041 165.716 382.041L379.875 382.042C384.093 382.025 390.659 382.927 393.881 379.81C399.694 374.184 393.544 369.248 390.198 364.489C386.432 359.133 381.83 350.916 379.875 344.671L132.676 344.671ZM218.113 392.688C221.342 422.667 259.126 436.413 282.539 414.588C288.406 408.07 291.975 401.408 293.39 392.688L218.113 392.688Z"/>
	<path transform="scale(2 2)" d="M261.875 156.568C258.09 156.601 251.192 157.321 247.855 155.77C242.545 153.304 244.932 147.116 249.593 145.755C252.975 145.758 260.399 145.055 263.236 146.373C268.409 148.775 266.825 155.257 261.875 156.568Z"/>
	<path transform="scale(2 2)" d="M166.533 318.137C156.604 317.153 162.011 306.22 163.104 299.046C165.561 282.915 166.88 266.84 167.09 250.511C167.183 243.291 166.834 236.014 167.314 228.809C169.493 196.071 189.672 166.749 219.686 153.472C222.831 152.081 226.05 150.587 229.473 150.081C231.811 150.243 233.77 151.392 234.48 153.77C236.536 160.648 223.496 163.052 219.364 165.255C203.54 173.688 191.465 187.084 184.221 203.425C175.478 223.15 178.46 239.339 177.685 259.774C177.341 268.843 174.502 308.301 169.982 316.066C169.193 317.42 167.963 317.742 166.533 318.137Z"/>
</svg>
