<?xml version="1.0" encoding="utf-8" ?>
<svg 
xmlns="http://www.w3.org/2000/svg" 
xmlns:xlink="http://www.w3.org/1999/xlink"
viewBox="0 0 900 900"
preserveAspectRatio="xMidYMid meet"
fill="currentColor"
 >
	<path transform="scale(2 2)" d="M262.633 436.763Q258.189 436.927 253.743 436.872Q249.297 436.817 244.859 436.544Q240.421 436.271 236.002 435.781Q231.582 435.291 227.192 434.584Q222.802 433.877 218.452 432.956Q214.102 432.035 209.803 430.901Q205.503 429.767 201.264 428.424Q197.025 427.081 192.858 425.531Q188.69 423.982 184.603 422.229Q180.517 420.477 176.521 418.526Q172.525 416.575 168.63 414.431Q164.735 412.286 160.95 409.953Q157.165 407.62 153.498 405.104Q149.832 402.587 146.294 399.895Q142.756 397.202 139.354 394.338Q135.952 391.475 132.695 388.448Q129.438 385.421 126.333 382.238Q123.228 379.055 120.284 375.723Q117.339 372.391 114.561 368.919Q111.783 365.447 109.179 361.843Q106.575 358.239 104.152 354.511Q101.728 350.783 99.4895 346.941Q97.2515 343.099 95.2047 339.151Q93.1579 335.204 91.3073 331.161Q89.4567 327.118 87.8067 322.989Q86.1568 318.86 84.7115 314.655Q83.2661 310.45 82.0289 306.179Q80.7917 301.908 79.7656 297.581Q78.7395 293.255 77.927 288.883Q77.1145 284.511 76.5175 280.105Q75.9205 275.699 75.5404 271.269Q75.1604 266.839 74.9982 262.395Q74.836 257.951 74.8921 253.505Q74.9482 249.059 75.2224 244.621Q75.4966 240.183 75.9883 235.764Q76.48 231.345 77.188 226.955Q77.896 222.565 78.8186 218.215Q79.7411 213.866 80.8761 209.566Q82.011 205.267 83.3556 201.029Q84.7001 196.791 86.2511 192.623Q87.802 188.456 89.5556 184.37Q91.3092 180.284 93.2612 176.289Q95.2132 172.294 97.3589 168.399Q99.5047 164.505 101.839 160.72Q104.173 156.936 106.69 153.27Q109.208 149.605 111.902 146.068Q114.596 142.53 117.46 139.129Q120.324 135.728 123.352 132.472Q126.38 129.216 129.564 126.112Q132.748 123.008 136.081 120.064Q139.413 117.121 142.886 114.344Q146.359 111.567 149.964 108.965Q153.569 106.362 157.298 103.939Q161.026 101.516 164.869 99.2791Q168.712 97.0422 172.66 94.9966Q176.608 92.951 180.652 91.1016Q184.695 89.2522 188.825 87.6035Q192.954 85.9548 197.16 84.5108Q201.365 83.0667 205.636 81.8308Q209.908 80.5949 214.234 79.5701Q218.561 78.5452 222.933 77.734Q227.305 76.9228 231.711 76.3271Q236.118 75.7314 240.548 75.3527Q244.978 74.9739 249.422 74.8131Q253.864 74.6523 258.308 74.7096Q262.753 74.7669 267.189 75.0422Q271.625 75.3175 276.043 75.81Q280.46 76.3026 284.848 77.0113Q289.236 77.72 293.584 78.6431Q297.932 79.5662 302.229 80.7015Q306.526 81.8368 310.763 83.1816Q314.999 84.5264 319.165 86.0773Q323.33 87.6283 327.415 89.3818Q331.499 91.1352 335.492 93.0869Q339.486 95.0386 343.379 97.1839Q347.271 99.3292 351.054 101.663Q354.837 103.997 358.501 106.513Q362.165 109.029 365.701 111.723Q369.237 114.416 372.636 117.279Q376.036 120.142 379.291 123.169Q382.546 126.196 385.649 129.379Q388.751 132.561 391.694 135.893Q394.637 139.224 397.413 142.695Q400.188 146.167 402.791 149.77Q405.393 153.374 407.815 157.1Q410.237 160.827 412.474 164.668Q414.71 168.51 416.755 172.456Q418.801 176.402 420.65 180.444Q422.499 184.486 424.148 188.613Q425.797 192.741 427.241 196.945Q428.686 201.148 429.922 205.418Q431.158 209.687 432.184 214.012Q433.209 218.337 434.021 222.707Q434.833 227.077 435.43 231.481Q436.026 235.886 436.406 240.315Q436.786 244.743 436.948 249.185Q437.11 253.627 437.054 258.071Q436.998 262.516 436.724 266.952Q436.45 271.388 435.959 275.806Q435.468 280.223 434.76 284.612Q434.053 289 433.131 293.348Q432.209 297.696 431.075 301.994Q429.941 306.291 428.598 310.528Q427.254 314.765 425.705 318.931Q424.155 323.097 422.403 327.182Q420.65 331.267 418.7 335.261Q416.749 339.254 414.605 343.148Q412.461 347.041 410.129 350.825Q407.796 354.609 405.281 358.273Q402.766 361.938 400.073 365.474Q397.381 369.011 394.519 372.412Q391.657 375.812 388.631 379.068Q385.605 382.324 382.423 385.428Q379.242 388.531 375.911 391.475Q372.581 394.419 369.111 397.196Q365.64 399.972 362.037 402.576Q358.434 405.179 354.708 407.602Q350.982 410.026 347.142 412.263Q343.301 414.501 339.356 416.547Q335.41 418.594 331.369 420.444Q327.328 422.295 323.201 423.945Q319.073 425.595 314.87 427.04Q310.667 428.486 306.398 429.724Q302.129 430.961 297.804 431.988Q293.48 433.015 289.11 433.828Q284.74 434.641 280.336 435.239Q275.932 435.837 271.503 436.218Q267.075 436.6 262.633 436.763ZM252.532 84.978C108.889 86.8362 29.8839 264.376 130.092 370.979C149.181 338.962 170.022 335.361 201.393 322.321C227.041 311.661 223.001 312.132 223.986 286.103C210.746 276.197 206.411 266.267 199.195 252.848C187.188 246.523 178.889 225.51 183.032 212.39C183.842 209.824 185.169 207.436 186.389 205.047L186.419 204.539C186.676 199.837 186.211 195.122 186.355 190.411C187.753 144.738 214.497 121.237 259.562 122.221C298.632 126.586 321.27 149.459 321.746 189.206C321.812 194.742 321.017 200.623 321.756 206.085C329.787 219.888 326.349 237.865 315.335 248.897C308.242 256.001 310.459 253.807 305.292 262.566C300.25 271.112 293.908 279.508 286.451 286.103C288.007 311.912 282.303 310.99 308.341 322.141C341.59 336.382 361.983 336.749 380.474 372.093C389.049 362.469 396.844 352.556 403.496 341.477C453.665 257.927 418.913 147.769 334.031 103.909C310.52 91.7605 279.074 83.7107 252.532 84.978ZM249.973 132.54C233.145 134.404 219.889 138.196 208.939 151.945C189.573 176.261 200.049 206.788 196.427 211.464C193.133 215.716 191.668 215.262 192.366 221.68C193.149 228.883 197.111 238.892 203.068 243.415C210.055 248.719 207.118 246.499 211.286 254.553C214.862 261.463 219.966 268.159 225.439 273.705C228.789 277.101 233.02 279.771 233.757 284.803C235.153 294.329 234.322 310.107 228.599 317.669C222.877 325.228 214.223 327.607 206.166 331.727C224.821 335.598 238.175 337.547 257.335 337.444C272.509 336.753 288.089 335.253 302.659 330.748C290.422 325.613 278.23 319.429 276.421 305.037C275.906 300.935 275.725 285.604 277.366 281.851C278.914 278.31 282.891 275.449 285.491 272.644C290.758 266.962 295.048 260.731 298.347 253.706C303.667 242.378 300.39 249.201 307.785 241.894C313.192 236.551 318.246 224.02 315.533 216.534C312.374 207.816 310.025 216.303 311.216 202.021C314.676 160.51 292.508 129.444 249.973 132.54ZM316.317 336.904C283.264 349.059 223.785 352.734 190.553 337.444C168.358 349.973 150.905 349.528 137.938 378.861C153.683 394.452 174.73 408.282 195.686 415.639C254.855 437.522 326.791 425.438 372.258 380.444C367.222 365.592 356.043 353.274 342.019 346.357C339.361 345.046 319.333 337.102 316.317 336.904Z"/>
</svg>
