<svg viewBox="101.066 91.775 278.51 282.4451" class="" fill="currentColor">
          <path d="M 267 230 C 288 255 326 290 327 294 C 253.671 366.744 244.441 371.562 231.363 373.478 C 218.284 375.406 205.672 373.576 193.514 368.001 C 181.356 362.426 169.395 353.768 157.63 342.003 C 145.865 330.251 137.195 318.289 131.632 306.119 C 126.069 293.962 124.239 281.288 126.155 268.111 C 128.071 254.946 134.604 242.776 206 177 Z M 224.817 138.908 L 164.913 153.497 L 121.133 196.675 L 107.759 231.945 L 101.066 225.559 L 108.668 185.733 L 157.925 136.169 L 225.235 110.933 L 224.928 110.319 L 242.562 92.684 L 296.683 91.775 L 324.658 119.75 L 318.886 125.829 L 295.467 149.236 L 270.832 124.601 L 261.106 124.601 L 246.811 138.895 L 237.085 138.895 L 224.817 138.908 Z M 347.057 221.912 L 338.24 230.729 C 347.77 256.273 346.433 274.294 326.158 294.557 C 296.353 264.961 263 225 205 178 C 224.781 156.012 243.176 152.085 268.916 161.406 L 277.734 152.588 L 347.057 221.912 Z Z M 378.975 164.451 L 379.576 182.086 L 347.647 214.322 L 338.522 204.891 L 294.435 161.111 L 285.311 151.986 L 317.547 119.75 L 335.182 120.364 L 378.975 164.451 Z M 367.36 171.92 m -7.273 0 a 7.273 7.564 0 1 0 14.546 0 a 7.273 7.564 0 1 0 -14.546 0 Z" />
  </svg>